<svg width="23" height="23" viewBox="0 0 23 23" fill="none" xmlns="http://www.w3.org/2000/svg">
    <path
        d="M22.9992 11.4996C22.9992 5.14876 17.8505 0 11.4996 0C5.14876 0 0 5.14876 0 11.4996C0 17.2395 4.20503 21.9965 9.70261 22.8597V14.8238H6.78247V11.4996H9.70261V8.96587C9.70261 6.08406 11.4191 4.49175 14.0464 4.49175C15.3045 4.49175 16.6208 4.71638 16.6208 4.71638V7.54605H15.1711C13.7428 7.54605 13.2974 8.43228 13.2974 9.34152V11.4988H16.4866L15.9768 14.823H13.2974V22.8589C18.795 21.9965 23 17.2387 23 11.4988L22.9992 11.4996Z"
        fill="#4373B9" />
    <path
        d="M15.9761 14.8234L16.4859 11.4993H13.2967V9.34196C13.2967 8.43272 13.7421 7.54649 15.1703 7.54649H16.62V4.71681C16.62 4.71681 15.3037 4.49219 14.0457 4.49219C11.4192 4.49219 9.70187 6.0845 9.70187 8.9663V11.5001H6.78174V14.8242H9.70187V22.8601C10.2876 22.9521 10.8871 22.9997 11.4989 22.9997C12.1107 22.9997 12.7102 22.9521 13.2959 22.8601V14.8242H15.9753L15.9761 14.8234Z"
        fill="white" />
</svg>
