<svg width="23" height="23" viewBox="0 0 23 23" fill="none" xmlns="http://www.w3.org/2000/svg">
    <mask id="mask0_47_6" style="mask-type:luminance" maskUnits="userSpaceOnUse" x="0" y="0"
        width="23" height="23">
        <path
            d="M22.7324 9.40889H11.7676V13.8518H18.0795C17.4915 16.6742 15.0305 18.2948 11.7676 18.2948C7.9166 18.2948 4.8139 15.2627 4.8139 11.4993C4.8139 7.73585 7.9166 4.70369 11.7676 4.70369C13.4259 4.70369 14.9232 5.27836 16.1 6.2194L19.5232 2.87406C17.4371 1.09763 14.7629 0 11.7676 0C5.2417 0 0 5.12252 0 11.5C0 17.8775 5.2417 23 11.7676 23C17.651 23 23 18.8185 23 11.5C23 10.8204 22.8927 10.0884 22.7324 9.40889Z"
            fill="white" />
    </mask>
    <g mask="url(#mask0_47_6)">
        <path d="M-1.06934 18.2962V4.70508L8.02333 11.5006L-1.06934 18.2962Z" fill="#F9BC15" />
    </g>
    <mask id="mask1_47_6" style="mask-type:luminance" maskUnits="userSpaceOnUse" x="0" y="0"
        width="23" height="23">
        <path
            d="M22.7324 9.40889H11.7676V13.8518H18.0795C17.4915 16.6742 15.0305 18.2948 11.7676 18.2948C7.9166 18.2948 4.8139 15.2627 4.8139 11.4993C4.8139 7.73585 7.9166 4.70369 11.7676 4.70369C13.4259 4.70369 14.9232 5.27836 16.1 6.2194L19.5232 2.87406C17.4371 1.09763 14.7629 0 11.7676 0C5.2417 0 0 5.12252 0 11.5C0 17.8775 5.2417 23 11.7676 23C17.651 23 23 18.8185 23 11.5C23 10.8204 22.8927 10.0884 22.7324 9.40889Z"
            fill="white" />
    </mask>
    <g mask="url(#mask1_47_6)">
        <path
            d="M-1.06934 4.70373L8.02333 11.4993L11.7677 8.31054L24.6048 6.27187V-1.0459H-1.06934V4.70373Z"
            fill="#EA4535" />
    </g>
    <mask id="mask2_47_6" style="mask-type:luminance" maskUnits="userSpaceOnUse" x="0" y="0"
        width="23" height="23">
        <path
            d="M22.7324 9.40889H11.7676V13.8518H18.0795C17.4915 16.6742 15.0305 18.2948 11.7676 18.2948C7.9166 18.2948 4.8139 15.2627 4.8139 11.4993C4.8139 7.73585 7.9166 4.70369 11.7676 4.70369C13.4259 4.70369 14.9232 5.27836 16.1 6.2194L19.5232 2.87406C17.4371 1.09763 14.7629 0 11.7676 0C5.2417 0 0 5.12252 0 11.5C0 17.8775 5.2417 23 11.7676 23C17.651 23 23 18.8185 23 11.5C23 10.8204 22.8927 10.0884 22.7324 9.40889Z"
            fill="white" />
    </mask>
    <g mask="url(#mask2_47_6)">
        <path
            d="M-1.06934 18.2948L14.977 6.27187L19.2029 6.79484L24.6048 -1.0459V24.0445H-1.06934V18.2948Z"
            fill="#36A852" />
    </g>
    <mask id="mask3_47_6" style="mask-type:luminance" maskUnits="userSpaceOnUse" x="0" y="0"
        width="23" height="23">
        <path
            d="M22.7324 9.40889H11.7676V13.8518H18.0795C17.4915 16.6742 15.0305 18.2948 11.7676 18.2948C7.9166 18.2948 4.8139 15.2627 4.8139 11.4993C4.8139 7.73585 7.9166 4.70369 11.7676 4.70369C13.4259 4.70369 14.9232 5.27836 16.1 6.2194L19.5232 2.87406C17.4371 1.09763 14.7629 0 11.7676 0C5.2417 0 0 5.12252 0 11.5C0 17.8775 5.2417 23 11.7676 23C17.651 23 23 18.8185 23 11.5C23 10.8204 22.8927 10.0884 22.7324 9.40889Z"
            fill="white" />
    </mask>
    <g mask="url(#mask3_47_6)">
        <path d="M24.6045 24.0458L8.02307 11.5006L5.8833 9.93249L24.6045 4.70508V24.0458Z"
            fill="#557EBF" />
    </g>
</svg>
